<?xml version="1.0" standalone="no"?>
<svg xmlns:xlink="http://www.w3.org/1999/xlink" id="wave" style="transform:rotate(0deg); transition: 0.3s" viewBox="0 0 1440 490" version="1.1" xmlns="http://www.w3.org/2000/svg"><defs><linearGradient id="sw-gradient-0" x1="0" x2="0" y1="1" y2="0"><stop stop-color="rgba(243, 106, 62, 1)" offset="0%"/><stop stop-color="rgba(250, 128, 114, 1)" offset="100%"/></linearGradient></defs><path style="transform:translate(0, 0px); opacity:1" fill="url(#sw-gradient-0)" d="M0,0L21.8,49C43.6,98,87,196,131,228.7C174.5,261,218,229,262,204.2C305.5,180,349,163,393,147C436.4,131,480,114,524,89.8C567.3,65,611,33,655,65.3C698.2,98,742,196,785,212.3C829.1,229,873,163,916,155.2C960,147,1004,196,1047,196C1090.9,196,1135,147,1178,138.8C1221.8,131,1265,163,1309,179.7C1352.7,196,1396,196,1440,171.5C1483.6,147,1527,98,1571,114.3C1614.5,131,1658,212,1702,245C1745.5,278,1789,261,1833,277.7C1876.4,294,1920,343,1964,343C2007.3,343,2051,294,2095,294C2138.2,294,2182,343,2225,318.5C2269.1,294,2313,196,2356,163.3C2400,131,2444,163,2487,220.5C2530.9,278,2575,359,2618,367.5C2661.8,376,2705,310,2749,236.8C2792.7,163,2836,82,2880,106.2C2923.6,131,2967,261,3011,285.8C3054.5,310,3098,229,3120,187.8L3141.8,147L3141.8,490L3120,490C3098.2,490,3055,490,3011,490C2967.3,490,2924,490,2880,490C2836.4,490,2793,490,2749,490C2705.5,490,2662,490,2618,490C2574.5,490,2531,490,2487,490C2443.6,490,2400,490,2356,490C2312.7,490,2269,490,2225,490C2181.8,490,2138,490,2095,490C2050.9,490,2007,490,1964,490C1920,490,1876,490,1833,490C1789.1,490,1745,490,1702,490C1658.2,490,1615,490,1571,490C1527.3,490,1484,490,1440,490C1396.4,490,1353,490,1309,490C1265.5,490,1222,490,1178,490C1134.5,490,1091,490,1047,490C1003.6,490,960,490,916,490C872.7,490,829,490,785,490C741.8,490,698,490,655,490C610.9,490,567,490,524,490C480,490,436,490,393,490C349.1,490,305,490,262,490C218.2,490,175,490,131,490C87.3,490,44,490,22,490L0,490Z"/></svg>